<svg width="24" height="24" viewBox="0 0 24 24" fill="none" xmlns="http://www.w3.org/2000/svg">
<circle cx="12" cy="12" r="12" fill="url(#paint0_linear_3_18)"/>
<g clip-path="url(#clip0_3_18)">
<path d="M12.6675 11.325C11.3325 10.8825 10.6875 10.605 10.6875 9.9C10.6875 9.135 11.52 8.8575 12.045 8.8575C13.0275 8.8575 13.3875 9.6 13.47 9.8625L14.655 9.36C14.5425 9.0225 14.04 7.92 12.75 7.68V6.75H11.25V7.695C9.39 8.115 9.3825 9.84 9.3825 9.915C9.3825 11.6175 11.07 12.0975 11.895 12.3975C13.08 12.8175 13.605 13.2 13.605 13.92C13.605 14.7675 12.8175 15.1275 12.12 15.1275C10.755 15.1275 10.365 13.725 10.32 13.56L9.075 14.0625C9.5475 15.705 10.785 16.1475 11.25 16.2825V17.25H12.75V16.32C13.05 16.2525 14.925 15.8775 14.925 13.905C14.925 12.8625 14.4675 11.9475 12.6675 11.325ZM5.25 18.75H3.75V14.25H8.25V15.75H6.39C7.5975 17.5575 9.66 18.75 12 18.75C15.7275 18.75 18.75 15.7275 18.75 12H20.25C20.25 16.56 16.56 20.25 12 20.25C9.21 20.25 6.7425 18.8625 5.25 16.7475V18.75ZM3.75 12C3.75 7.44 7.44 3.75 12 3.75C14.79 3.75 17.2575 5.1375 18.75 7.2525V5.25H20.25V9.75H15.75V8.25H17.61C16.4025 6.4425 14.34 5.25 12 5.25C8.2725 5.25 5.25 8.2725 5.25 12H3.75Z" fill="white"/>
</g>
<defs>
<linearGradient id="paint0_linear_3_18" x1="12" y1="0" x2="12" y2="24" gradientUnits="userSpaceOnUse">
<stop stop-color="#7372D4"/>
<stop offset="1" stop-color="#FF292D"/>
</linearGradient>
<clipPath id="clip0_3_18">
<rect width="18" height="18" fill="white" transform="translate(3 3)"/>
</clipPath>
</defs>
</svg>
